<?xml version="1.0" standalone="yes"?>

<svg version="1.1" viewBox="0.0 0.0 165.19160104986878 162.58267716535434" fill="none" stroke="none" stroke-linecap="square" stroke-miterlimit="10" xmlns="http://www.w3.org/2000/svg" xmlns:xlink="http://www.w3.org/1999/xlink"><clipPath id="p.0"><path d="m0 0l165.1916 0l0 162.58267l-165.1916 0l0 -162.58267z" clip-rule="nonzero"></path></clipPath><g clip-path="url(#p.0)"><path fill="#000000" fill-opacity="0.0" d="m0 0l165.1916 0l0 162.58267l-165.1916 0z" fill-rule="nonzero"></path><path fill="#f3f3f3" d="m3.5879333 81.29134l0 0c0 43.626144 35.37303 78.99212 79.00787 78.99212l0 0c20.954185 0 41.050148 -8.322357 55.867004 -23.136261c14.816849 -14.813889 23.14087 -34.905846 23.14087 -55.855858l0 0c0 -43.62615 -35.37303 -78.99213 -79.00787 -78.99213l0 0c-43.634846 0 -79.00787 35.365982 -79.00787 78.99213z" fill-rule="nonzero"></path><path stroke="#f3f3f3" stroke-width="2.0" stroke-linejoin="round" stroke-linecap="butt" d="m3.5879333 81.29134l0 0c0 43.626144 35.37303 78.99212 79.00787 78.99212l0 0c20.954185 0 41.050148 -8.322357 55.867004 -23.136261c14.816849 -14.813889 23.14087 -34.905846 23.14087 -55.855858l0 0c0 -43.62615 -35.37303 -78.99213 -79.00787 -78.99213l0 0c-43.634846 0 -79.00787 35.365982 -79.00787 78.99213z" fill-rule="nonzero"></path><path fill="#666666" d="m82.59581 136.7874l0 0c4.1399612 0 7.496063 -3.3561096 7.496063 -7.496063l0 0c0 -1.9880829 -0.7897644 -3.8947372 -2.195549 -5.300522c-1.4057846 -1.4057846 -3.312439 -2.1955414 -5.300514 -2.1955414l0 0c-4.1399612 0 -7.496063 3.356102 -7.496063 7.496063l0 0c0 4.1399536 3.356102 7.496063 7.496063 7.496063z" fill-rule="nonzero"></path><path stroke="#999999" stroke-width="1.0" stroke-linejoin="round" stroke-linecap="butt" d="m82.59581 136.7874l0 0c4.1399612 0 7.496063 -3.3561096 7.496063 -7.496063l0 0c0 -1.9880829 -0.7897644 -3.8947372 -2.195549 -5.300522c-1.4057846 -1.4057846 -3.312439 -2.1955414 -5.300514 -2.1955414l0 0c-4.1399612 0 -7.496063 3.356102 -7.496063 7.496063l0 0c0 4.1399536 3.356102 7.496063 7.496063 7.496063z" fill-rule="nonzero"></path><path fill="#666666" d="m66.59581 120.7874l0 0c4.1399612 0 7.496063 -3.356102 7.496063 -7.496063l0 0c0 -1.9880829 -0.7897644 -3.8947372 -2.195549 -5.300522c-1.4057846 -1.4057846 -3.312439 -2.1955414 -5.300514 -2.1955414l0 0c-4.1399612 0 -7.496063 3.356102 -7.496063 7.496063l0 0c0 4.1399612 3.356102 7.496063 7.496063 7.496063z" fill-rule="nonzero"></path><path stroke="#999999" stroke-width="1.0" stroke-linejoin="round" stroke-linecap="butt" d="m66.59581 120.7874l0 0c4.1399612 0 7.496063 -3.356102 7.496063 -7.496063l0 0c0 -1.9880829 -0.7897644 -3.8947372 -2.195549 -5.300522c-1.4057846 -1.4057846 -3.312439 -2.1955414 -5.300514 -2.1955414l0 0c-4.1399612 0 -7.496063 3.356102 -7.496063 7.496063l0 0c0 4.1399612 3.356102 7.496063 7.496063 7.496063z" fill-rule="nonzero"></path><path fill="#666666" d="m66.59581 104.7874l0 0c4.1399612 0 7.496063 -3.356102 7.496063 -7.496063l0 0c0 -1.9880829 -0.7897644 -3.8947372 -2.195549 -5.300522c-1.4057846 -1.4057846 -3.312439 -2.1955414 -5.300514 -2.1955414l0 0c-4.1399612 0 -7.496063 3.356102 -7.496063 7.496063l0 0c0 4.1399612 3.356102 7.496063 7.496063 7.496063z" fill-rule="nonzero"></path><path stroke="#999999" stroke-width="1.0" stroke-linejoin="round" stroke-linecap="butt" d="m66.59581 104.7874l0 0c4.1399612 0 7.496063 -3.356102 7.496063 -7.496063l0 0c0 -1.9880829 -0.7897644 -3.8947372 -2.195549 -5.300522c-1.4057846 -1.4057846 -3.312439 -2.1955414 -5.300514 -2.1955414l0 0c-4.1399612 0 -7.496063 3.356102 -7.496063 7.496063l0 0c0 4.1399612 3.356102 7.496063 7.496063 7.496063z" fill-rule="nonzero"></path><path fill="#666666" d="m50.59581 104.7874l0 0c4.1399612 0 7.496063 -3.356102 7.496063 -7.496063l0 0c0 -1.9880829 -0.7897644 -3.8947372 -2.1955452 -5.300522c-1.4057846 -1.4057846 -3.312439 -2.1955414 -5.300518 -2.1955414l0 0c-4.1399612 0 -7.496063 3.356102 -7.496063 7.496063l0 0c0 4.1399612 3.356102 7.496063 7.496063 7.496063z" fill-rule="nonzero"></path><path stroke="#999999" stroke-width="1.0" stroke-linejoin="round" stroke-linecap="butt" d="m50.59581 104.7874l0 0c4.1399612 0 7.496063 -3.356102 7.496063 -7.496063l0 0c0 -1.9880829 -0.7897644 -3.8947372 -2.1955452 -5.300522c-1.4057846 -1.4057846 -3.312439 -2.1955414 -5.300518 -2.1955414l0 0c-4.1399612 0 -7.496063 3.356102 -7.496063 7.496063l0 0c0 4.1399612 3.356102 7.496063 7.496063 7.496063z" fill-rule="nonzero"></path><path fill="#666666" d="m50.59581 88.7874l0 0c4.1399612 0 7.496063 -3.356102 7.496063 -7.496063l0 0c0 -1.9880829 -0.7897644 -3.8947372 -2.1955452 -5.300522c-1.4057846 -1.4057846 -3.312439 -2.1955414 -5.300518 -2.1955414l0 0c-4.1399612 0 -7.496063 3.356102 -7.496063 7.496063l0 0c0 4.1399612 3.356102 7.496063 7.496063 7.496063z" fill-rule="nonzero"></path><path stroke="#999999" stroke-width="1.0" stroke-linejoin="round" stroke-linecap="butt" d="m50.59581 88.7874l0 0c4.1399612 0 7.496063 -3.356102 7.496063 -7.496063l0 0c0 -1.9880829 -0.7897644 -3.8947372 -2.1955452 -5.300522c-1.4057846 -1.4057846 -3.312439 -2.1955414 -5.300518 -2.1955414l0 0c-4.1399612 0 -7.496063 3.356102 -7.496063 7.496063l0 0c0 4.1399612 3.356102 7.496063 7.496063 7.496063z" fill-rule="nonzero"></path><path fill="#666666" d="m98.59581 120.7874l0 0c4.1399612 0 7.496063 -3.356102 7.496063 -7.496063l0 0c0 -1.9880829 -0.7897644 -3.8947372 -2.195549 -5.300522c-1.4057846 -1.4057846 -3.312439 -2.1955414 -5.300514 -2.1955414l0 0c-4.1399612 0 -7.496063 3.356102 -7.496063 7.496063l0 0c0 4.1399612 3.356102 7.496063 7.496063 7.496063z" fill-rule="nonzero"></path><path stroke="#999999" stroke-width="1.0" stroke-linejoin="round" stroke-linecap="butt" d="m98.59581 120.7874l0 0c4.1399612 0 7.496063 -3.356102 7.496063 -7.496063l0 0c0 -1.9880829 -0.7897644 -3.8947372 -2.195549 -5.300522c-1.4057846 -1.4057846 -3.312439 -2.1955414 -5.300514 -2.1955414l0 0c-4.1399612 0 -7.496063 3.356102 -7.496063 7.496063l0 0c0 4.1399612 3.356102 7.496063 7.496063 7.496063z" fill-rule="nonzero"></path><path fill="#666666" d="m98.59581 104.7874l0 0c4.1399612 0 7.496063 -3.356102 7.496063 -7.496063l0 0c0 -1.9880829 -0.7897644 -3.8947372 -2.195549 -5.300522c-1.4057846 -1.4057846 -3.312439 -2.1955414 -5.300514 -2.1955414l0 0c-4.1399612 0 -7.496063 3.356102 -7.496063 7.496063l0 0c0 4.1399612 3.356102 7.496063 7.496063 7.496063z" fill-rule="nonzero"></path><path stroke="#999999" stroke-width="1.0" stroke-linejoin="round" stroke-linecap="butt" d="m98.59581 104.7874l0 0c4.1399612 0 7.496063 -3.356102 7.496063 -7.496063l0 0c0 -1.9880829 -0.7897644 -3.8947372 -2.195549 -5.300522c-1.4057846 -1.4057846 -3.312439 -2.1955414 -5.300514 -2.1955414l0 0c-4.1399612 0 -7.496063 3.356102 -7.496063 7.496063l0 0c0 4.1399612 3.356102 7.496063 7.496063 7.496063z" fill-rule="nonzero"></path><path fill="#666666" d="m114.59581 104.7874l0 0c4.1399612 0 7.496063 -3.356102 7.496063 -7.496063l0 0c0 -1.9880829 -0.7897644 -3.8947372 -2.195549 -5.300522c-1.4057846 -1.4057846 -3.312439 -2.1955414 -5.300514 -2.1955414l0 0c-4.1399612 0 -7.496063 3.356102 -7.496063 7.496063l0 0c0 4.1399612 3.356102 7.496063 7.496063 7.496063z" fill-rule="nonzero"></path><path stroke="#999999" stroke-width="1.0" stroke-linejoin="round" stroke-linecap="butt" d="m114.59581 104.7874l0 0c4.1399612 0 7.496063 -3.356102 7.496063 -7.496063l0 0c0 -1.9880829 -0.7897644 -3.8947372 -2.195549 -5.300522c-1.4057846 -1.4057846 -3.312439 -2.1955414 -5.300514 -2.1955414l0 0c-4.1399612 0 -7.496063 3.356102 -7.496063 7.496063l0 0c0 4.1399612 3.356102 7.496063 7.496063 7.496063z" fill-rule="nonzero"></path><path fill="#666666" d="m114.59581 88.7874l0 0c4.1399612 0 7.496063 -3.356102 7.496063 -7.496063l0 0c0 -1.9880829 -0.7897644 -3.8947372 -2.195549 -5.300522c-1.4057846 -1.4057846 -3.312439 -2.1955414 -5.300514 -2.1955414l0 0c-4.1399612 0 -7.496063 3.356102 -7.496063 7.496063l0 0c0 4.1399612 3.356102 7.496063 7.496063 7.496063z" fill-rule="nonzero"></path><path stroke="#999999" stroke-width="1.0" stroke-linejoin="round" stroke-linecap="butt" d="m114.59581 88.7874l0 0c4.1399612 0 7.496063 -3.356102 7.496063 -7.496063l0 0c0 -1.9880829 -0.7897644 -3.8947372 -2.195549 -5.300522c-1.4057846 -1.4057846 -3.312439 -2.1955414 -5.300514 -2.1955414l0 0c-4.1399612 0 -7.496063 3.356102 -7.496063 7.496063l0 0c0 4.1399612 3.356102 7.496063 7.496063 7.496063z" fill-rule="nonzero"></path><path fill="#666666" d="m130.59581 88.7874l0 0c4.1399536 0 7.496063 -3.356102 7.496063 -7.496063l0 0c0 -1.9880829 -0.7897644 -3.8947372 -2.1955414 -5.300522c-1.4057922 -1.4057846 -3.312439 -2.1955414 -5.300522 -2.1955414l0 0c-4.1399612 0 -7.496063 3.356102 -7.496063 7.496063l0 0c0 4.1399612 3.356102 7.496063 7.496063 7.496063z" fill-rule="nonzero"></path><path stroke="#999999" stroke-width="1.0" stroke-linejoin="round" stroke-linecap="butt" d="m130.59581 88.7874l0 0c4.1399536 0 7.496063 -3.356102 7.496063 -7.496063l0 0c0 -1.9880829 -0.7897644 -3.8947372 -2.1955414 -5.300522c-1.4057922 -1.4057846 -3.312439 -2.1955414 -5.300522 -2.1955414l0 0c-4.1399612 0 -7.496063 3.356102 -7.496063 7.496063l0 0c0 4.1399612 3.356102 7.496063 7.496063 7.496063z" fill-rule="nonzero"></path><path fill="#666666" d="m130.59581 72.78739l0 0c4.1399536 0 7.496063 -3.356102 7.496063 -7.496063l0 0c0 -1.9880791 -0.7897644 -3.8947334 -2.1955414 -5.300518c-1.4057922 -1.4057846 -3.312439 -2.1955452 -5.300522 -2.1955452l0 0c-4.1399612 0 -7.496063 3.356102 -7.496063 7.496063l0 0c0 4.1399612 3.356102 7.496063 7.496063 7.496063z" fill-rule="nonzero"></path><path stroke="#999999" stroke-width="1.0" stroke-linejoin="round" stroke-linecap="butt" d="m130.59581 72.78739l0 0c4.1399536 0 7.496063 -3.356102 7.496063 -7.496063l0 0c0 -1.9880791 -0.7897644 -3.8947334 -2.1955414 -5.300518c-1.4057922 -1.4057846 -3.312439 -2.1955452 -5.300522 -2.1955452l0 0c-4.1399612 0 -7.496063 3.356102 -7.496063 7.496063l0 0c0 4.1399612 3.356102 7.496063 7.496063 7.496063z" fill-rule="nonzero"></path><path fill="#666666" d="m34.59581 88.7874l0 0c4.1399612 0 7.496063 -3.356102 7.496063 -7.496063l0 0c0 -1.9880829 -0.7897644 -3.8947372 -2.1955452 -5.300522c-1.4057846 -1.4057846 -3.312439 -2.1955414 -5.300518 -2.1955414l0 0c-4.1399612 0 -7.496063 3.356102 -7.496063 7.496063l0 0c0 4.1399612 3.356102 7.496063 7.496063 7.496063z" fill-rule="nonzero"></path><path stroke="#999999" stroke-width="1.0" stroke-linejoin="round" stroke-linecap="butt" d="m34.59581 88.7874l0 0c4.1399612 0 7.496063 -3.356102 7.496063 -7.496063l0 0c0 -1.9880829 -0.7897644 -3.8947372 -2.1955452 -5.300522c-1.4057846 -1.4057846 -3.312439 -2.1955414 -5.300518 -2.1955414l0 0c-4.1399612 0 -7.496063 3.356102 -7.496063 7.496063l0 0c0 4.1399612 3.356102 7.496063 7.496063 7.496063z" fill-rule="nonzero"></path><path fill="#666666" d="m34.59581 72.78739l0 0c4.1399612 0 7.496063 -3.356102 7.496063 -7.496063l0 0c0 -1.9880791 -0.7897644 -3.8947334 -2.1955452 -5.300518c-1.4057846 -1.4057846 -3.312439 -2.1955452 -5.300518 -2.1955452l0 0c-4.1399612 0 -7.496063 3.356102 -7.496063 7.496063l0 0c0 4.1399612 3.356102 7.496063 7.496063 7.496063z" fill-rule="nonzero"></path><path stroke="#999999" stroke-width="1.0" stroke-linejoin="round" stroke-linecap="butt" d="m34.59581 72.78739l0 0c4.1399612 0 7.496063 -3.356102 7.496063 -7.496063l0 0c0 -1.9880791 -0.7897644 -3.8947334 -2.1955452 -5.300518c-1.4057846 -1.4057846 -3.312439 -2.1955452 -5.300518 -2.1955452l0 0c-4.1399612 0 -7.496063 3.356102 -7.496063 7.496063l0 0c0 4.1399612 3.356102 7.496063 7.496063 7.496063z" fill-rule="nonzero"></path><path fill="#666666" d="m82.59581 120.7874l0 0c4.1399612 0 7.496063 -3.356102 7.496063 -7.496063l0 0c0 -1.9880829 -0.7897644 -3.8947372 -2.195549 -5.300522c-1.4057846 -1.4057846 -3.312439 -2.1955414 -5.300514 -2.1955414l0 0c-4.1399612 0 -7.496063 3.356102 -7.496063 7.496063l0 0c0 4.1399612 3.356102 7.496063 7.496063 7.496063z" fill-rule="nonzero"></path><path stroke="#999999" stroke-width="1.0" stroke-linejoin="round" stroke-linecap="butt" d="m82.59581 120.7874l0 0c4.1399612 0 7.496063 -3.356102 7.496063 -7.496063l0 0c0 -1.9880829 -0.7897644 -3.8947372 -2.195549 -5.300522c-1.4057846 -1.4057846 -3.312439 -2.1955414 -5.300514 -2.1955414l0 0c-4.1399612 0 -7.496063 3.356102 -7.496063 7.496063l0 0c0 4.1399612 3.356102 7.496063 7.496063 7.496063z" fill-rule="nonzero"></path></g></svg>

