<?xml version="1.0" standalone="yes"?>

<svg version="1.1" viewBox="0.0 0.0 165.19160104986878 162.58267716535434" fill="none" stroke="none" stroke-linecap="square" stroke-miterlimit="10" xmlns="http://www.w3.org/2000/svg" xmlns:xlink="http://www.w3.org/1999/xlink"><clipPath id="p.0"><path d="m0 0l165.1916 0l0 162.58267l-165.1916 0l0 -162.58267z" clip-rule="nonzero"></path></clipPath><g clip-path="url(#p.0)"><path fill="#000000" fill-opacity="0.0" d="m0 0l165.1916 0l0 162.58267l-165.1916 0z" fill-rule="nonzero"></path><path fill="#f3f3f3" d="m3.5879266 81.291336l0 0c0 -43.626144 35.37303 -78.99213 79.00787 -78.99213l0 0c20.954185 0 41.050148 8.322361 55.866997 23.136257c14.816849 14.813896 23.14087 34.905853 23.14087 55.855865l0 0c0 43.626152 -35.373024 78.99213 -79.007866 78.99213l0 0c-43.634846 0 -79.00787 -35.365974 -79.00787 -78.99213z" fill-rule="nonzero"></path><path stroke="#f3f3f3" stroke-width="2.0" stroke-linejoin="round" stroke-linecap="butt" d="m3.5879266 81.291336l0 0c0 -43.626144 35.37303 -78.99213 79.00787 -78.99213l0 0c20.954185 0 41.050148 8.322361 55.866997 23.136257c14.816849 14.813896 23.14087 34.905853 23.14087 55.855865l0 0c0 43.626152 -35.373024 78.99213 -79.007866 78.99213l0 0c-43.634846 0 -79.00787 -35.365974 -79.00787 -78.99213z" fill-rule="nonzero"></path><path fill="#666666" d="m27.099737 81.291336l0 0c0 -4.1399612 3.356102 -7.496063 7.496065 -7.496063l0 0c1.9880791 0 3.8947296 0.7897644 5.300514 2.195549c1.4057846 1.4057846 2.1955452 3.312439 2.1955452 5.300514l0 0c0 4.1399612 -3.3560982 7.496063 -7.4960594 7.496063l0 0c-4.139963 0 -7.496065 -3.356102 -7.496065 -7.496063z" fill-rule="nonzero"></path><path stroke="#999999" stroke-width="1.0" stroke-linejoin="round" stroke-linecap="butt" d="m27.099737 81.291336l0 0c0 -4.1399612 3.356102 -7.496063 7.496065 -7.496063l0 0c1.9880791 0 3.8947296 0.7897644 5.300514 2.195549c1.4057846 1.4057846 2.1955452 3.312439 2.1955452 5.300514l0 0c0 4.1399612 -3.3560982 7.496063 -7.4960594 7.496063l0 0c-4.139963 0 -7.496065 -3.356102 -7.496065 -7.496063z" fill-rule="nonzero"></path><path fill="#666666" d="m43.09974 97.291336l0 0c0 -4.1399612 3.356102 -7.496063 7.496063 -7.496063l0 0c1.9880791 0 3.8947296 0.7897644 5.300514 2.195549c1.4057846 1.4057846 2.1955452 3.312439 2.1955452 5.300514l0 0c0 4.1399612 -3.3560982 7.496063 -7.4960594 7.496063l0 0c-4.1399612 0 -7.496063 -3.356102 -7.496063 -7.496063z" fill-rule="nonzero"></path><path stroke="#999999" stroke-width="1.0" stroke-linejoin="round" stroke-linecap="butt" d="m43.09974 97.291336l0 0c0 -4.1399612 3.356102 -7.496063 7.496063 -7.496063l0 0c1.9880791 0 3.8947296 0.7897644 5.300514 2.195549c1.4057846 1.4057846 2.1955452 3.312439 2.1955452 5.300514l0 0c0 4.1399612 -3.3560982 7.496063 -7.4960594 7.496063l0 0c-4.1399612 0 -7.496063 -3.356102 -7.496063 -7.496063z" fill-rule="nonzero"></path><path fill="#666666" d="m59.09974 97.291336l0 0c0 -4.1399612 3.356102 -7.496063 7.496063 -7.496063l0 0c1.9880753 0 3.8947296 0.7897644 5.300514 2.195549c1.4057846 1.4057846 2.195549 3.312439 2.195549 5.300514l0 0c0 4.1399612 -3.356102 7.496063 -7.496063 7.496063l0 0c-4.1399612 0 -7.496063 -3.356102 -7.496063 -7.496063z" fill-rule="nonzero"></path><path stroke="#999999" stroke-width="1.0" stroke-linejoin="round" stroke-linecap="butt" d="m59.09974 97.291336l0 0c0 -4.1399612 3.356102 -7.496063 7.496063 -7.496063l0 0c1.9880753 0 3.8947296 0.7897644 5.300514 2.195549c1.4057846 1.4057846 2.195549 3.312439 2.195549 5.300514l0 0c0 4.1399612 -3.356102 7.496063 -7.496063 7.496063l0 0c-4.1399612 0 -7.496063 -3.356102 -7.496063 -7.496063z" fill-rule="nonzero"></path><path fill="#666666" d="m59.09974 113.291336l0 0c0 -4.1399612 3.356102 -7.496063 7.496063 -7.496063l0 0c1.9880753 0 3.8947296 0.7897644 5.300514 2.195549c1.4057846 1.4057846 2.195549 3.312439 2.195549 5.300514l0 0c0 4.1399612 -3.356102 7.496063 -7.496063 7.496063l0 0c-4.1399612 0 -7.496063 -3.356102 -7.496063 -7.496063z" fill-rule="nonzero"></path><path stroke="#999999" stroke-width="1.0" stroke-linejoin="round" stroke-linecap="butt" d="m59.09974 113.291336l0 0c0 -4.1399612 3.356102 -7.496063 7.496063 -7.496063l0 0c1.9880753 0 3.8947296 0.7897644 5.300514 2.195549c1.4057846 1.4057846 2.195549 3.312439 2.195549 5.300514l0 0c0 4.1399612 -3.356102 7.496063 -7.496063 7.496063l0 0c-4.1399612 0 -7.496063 -3.356102 -7.496063 -7.496063z" fill-rule="nonzero"></path><path fill="#666666" d="m75.09974 113.291336l0 0c0 -4.1399612 3.356102 -7.496063 7.496063 -7.496063l0 0c1.9880753 0 3.8947296 0.7897644 5.300514 2.195549c1.4057846 1.4057846 2.195549 3.312439 2.195549 5.300514l0 0c0 4.1399612 -3.356102 7.496063 -7.496063 7.496063l0 0c-4.1399612 0 -7.496063 -3.356102 -7.496063 -7.496063z" fill-rule="nonzero"></path><path stroke="#999999" stroke-width="1.0" stroke-linejoin="round" stroke-linecap="butt" d="m75.09974 113.291336l0 0c0 -4.1399612 3.356102 -7.496063 7.496063 -7.496063l0 0c1.9880753 0 3.8947296 0.7897644 5.300514 2.195549c1.4057846 1.4057846 2.195549 3.312439 2.195549 5.300514l0 0c0 4.1399612 -3.356102 7.496063 -7.496063 7.496063l0 0c-4.1399612 0 -7.496063 -3.356102 -7.496063 -7.496063z" fill-rule="nonzero"></path><path fill="#666666" d="m43.09974 65.291336l0 0c0 -4.1399574 3.356102 -7.4960594 7.496063 -7.4960594l0 0c1.9880791 0 3.8947296 0.7897606 5.300514 2.1955452c1.4057846 1.4057846 2.1955452 3.312439 2.1955452 5.300514l0 0c0 4.1399612 -3.3560982 7.496063 -7.4960594 7.496063l0 0c-4.1399612 0 -7.496063 -3.356102 -7.496063 -7.496063z" fill-rule="nonzero"></path><path stroke="#999999" stroke-width="1.0" stroke-linejoin="round" stroke-linecap="butt" d="m43.09974 65.291336l0 0c0 -4.1399574 3.356102 -7.4960594 7.496063 -7.4960594l0 0c1.9880791 0 3.8947296 0.7897606 5.300514 2.1955452c1.4057846 1.4057846 2.1955452 3.312439 2.1955452 5.300514l0 0c0 4.1399612 -3.3560982 7.496063 -7.4960594 7.496063l0 0c-4.1399612 0 -7.496063 -3.356102 -7.496063 -7.496063z" fill-rule="nonzero"></path><path fill="#666666" d="m59.09974 65.291336l0 0c0 -4.1399574 3.356102 -7.4960594 7.496063 -7.4960594l0 0c1.9880753 0 3.8947296 0.7897606 5.300514 2.1955452c1.4057846 1.4057846 2.195549 3.312439 2.195549 5.300514l0 0c0 4.1399612 -3.356102 7.496063 -7.496063 7.496063l0 0c-4.1399612 0 -7.496063 -3.356102 -7.496063 -7.496063z" fill-rule="nonzero"></path><path stroke="#999999" stroke-width="1.0" stroke-linejoin="round" stroke-linecap="butt" d="m59.09974 65.291336l0 0c0 -4.1399574 3.356102 -7.4960594 7.496063 -7.4960594l0 0c1.9880753 0 3.8947296 0.7897606 5.300514 2.1955452c1.4057846 1.4057846 2.195549 3.312439 2.195549 5.300514l0 0c0 4.1399612 -3.356102 7.496063 -7.496063 7.496063l0 0c-4.1399612 0 -7.496063 -3.356102 -7.496063 -7.496063z" fill-rule="nonzero"></path><path fill="#666666" d="m59.09974 49.29134l0 0c0 -4.1399612 3.356102 -7.496063 7.496063 -7.496063l0 0c1.9880753 0 3.8947296 0.7897606 5.300514 2.1955452c1.4057846 1.4057846 2.195549 3.312439 2.195549 5.300518l0 0c0 4.1399612 -3.356102 7.496063 -7.496063 7.496063l0 0c-4.1399612 0 -7.496063 -3.356102 -7.496063 -7.496063z" fill-rule="nonzero"></path><path stroke="#999999" stroke-width="1.0" stroke-linejoin="round" stroke-linecap="butt" d="m59.09974 49.29134l0 0c0 -4.1399612 3.356102 -7.496063 7.496063 -7.496063l0 0c1.9880753 0 3.8947296 0.7897606 5.300514 2.1955452c1.4057846 1.4057846 2.195549 3.312439 2.195549 5.300518l0 0c0 4.1399612 -3.356102 7.496063 -7.496063 7.496063l0 0c-4.1399612 0 -7.496063 -3.356102 -7.496063 -7.496063z" fill-rule="nonzero"></path><path fill="#666666" d="m75.09974 49.29134l0 0c0 -4.1399612 3.356102 -7.496063 7.496063 -7.496063l0 0c1.9880753 0 3.8947296 0.7897606 5.300514 2.1955452c1.4057846 1.4057846 2.195549 3.312439 2.195549 5.300518l0 0c0 4.1399612 -3.356102 7.496063 -7.496063 7.496063l0 0c-4.1399612 0 -7.496063 -3.356102 -7.496063 -7.496063z" fill-rule="nonzero"></path><path stroke="#999999" stroke-width="1.0" stroke-linejoin="round" stroke-linecap="butt" d="m75.09974 49.29134l0 0c0 -4.1399612 3.356102 -7.496063 7.496063 -7.496063l0 0c1.9880753 0 3.8947296 0.7897606 5.300514 2.1955452c1.4057846 1.4057846 2.195549 3.312439 2.195549 5.300518l0 0c0 4.1399612 -3.356102 7.496063 -7.496063 7.496063l0 0c-4.1399612 0 -7.496063 -3.356102 -7.496063 -7.496063z" fill-rule="nonzero"></path><path fill="#666666" d="m75.09974 33.29134l0 0c0 -4.139963 3.356102 -7.496065 7.496063 -7.496065l0 0c1.9880753 0 3.8947296 0.7897625 5.300514 2.195547c1.4057846 1.4057846 2.195549 3.312437 2.195549 5.300518l0 0c0 4.1399612 -3.356102 7.496063 -7.496063 7.496063l0 0c-4.1399612 0 -7.496063 -3.356102 -7.496063 -7.496063z" fill-rule="nonzero"></path><path stroke="#999999" stroke-width="1.0" stroke-linejoin="round" stroke-linecap="butt" d="m75.09974 33.29134l0 0c0 -4.139963 3.356102 -7.496065 7.496063 -7.496065l0 0c1.9880753 0 3.8947296 0.7897625 5.300514 2.195547c1.4057846 1.4057846 2.195549 3.312437 2.195549 5.300518l0 0c0 4.1399612 -3.356102 7.496063 -7.496063 7.496063l0 0c-4.1399612 0 -7.496063 -3.356102 -7.496063 -7.496063z" fill-rule="nonzero"></path><path fill="#666666" d="m91.09974 33.29134l0 0c0 -4.139963 3.356102 -7.496065 7.496063 -7.496065l0 0c1.9880753 0 3.8947296 0.7897625 5.300514 2.195547c1.4057846 1.4057846 2.195549 3.312437 2.195549 5.300518l0 0c0 4.1399612 -3.356102 7.496063 -7.496063 7.496063l0 0c-4.1399612 0 -7.496063 -3.356102 -7.496063 -7.496063z" fill-rule="nonzero"></path><path stroke="#999999" stroke-width="1.0" stroke-linejoin="round" stroke-linecap="butt" d="m91.09974 33.29134l0 0c0 -4.139963 3.356102 -7.496065 7.496063 -7.496065l0 0c1.9880753 0 3.8947296 0.7897625 5.300514 2.195547c1.4057846 1.4057846 2.195549 3.312437 2.195549 5.300518l0 0c0 4.1399612 -3.356102 7.496063 -7.496063 7.496063l0 0c-4.1399612 0 -7.496063 -3.356102 -7.496063 -7.496063z" fill-rule="nonzero"></path><path fill="#666666" d="m75.09974 129.29134l0 0c0 -4.1399612 3.356102 -7.496063 7.496063 -7.496063l0 0c1.9880753 0 3.8947296 0.7897644 5.300514 2.195549c1.4057846 1.4057846 2.195549 3.312439 2.195549 5.300514l0 0c0 4.139969 -3.356102 7.496063 -7.496063 7.496063l0 0c-4.1399612 0 -7.496063 -3.3560944 -7.496063 -7.496063z" fill-rule="nonzero"></path><path stroke="#999999" stroke-width="1.0" stroke-linejoin="round" stroke-linecap="butt" d="m75.09974 129.29134l0 0c0 -4.1399612 3.356102 -7.496063 7.496063 -7.496063l0 0c1.9880753 0 3.8947296 0.7897644 5.300514 2.195549c1.4057846 1.4057846 2.195549 3.312439 2.195549 5.300514l0 0c0 4.139969 -3.356102 7.496063 -7.496063 7.496063l0 0c-4.1399612 0 -7.496063 -3.3560944 -7.496063 -7.496063z" fill-rule="nonzero"></path><path fill="#666666" d="m91.09974 129.29134l0 0c0 -4.1399612 3.356102 -7.496063 7.496063 -7.496063l0 0c1.9880753 0 3.8947296 0.7897644 5.300514 2.195549c1.4057846 1.4057846 2.195549 3.312439 2.195549 5.300514l0 0c0 4.139969 -3.356102 7.496063 -7.496063 7.496063l0 0c-4.1399612 0 -7.496063 -3.3560944 -7.496063 -7.496063z" fill-rule="nonzero"></path><path stroke="#999999" stroke-width="1.0" stroke-linejoin="round" stroke-linecap="butt" d="m91.09974 129.29134l0 0c0 -4.1399612 3.356102 -7.496063 7.496063 -7.496063l0 0c1.9880753 0 3.8947296 0.7897644 5.300514 2.195549c1.4057846 1.4057846 2.195549 3.312439 2.195549 5.300514l0 0c0 4.139969 -3.356102 7.496063 -7.496063 7.496063l0 0c-4.1399612 0 -7.496063 -3.3560944 -7.496063 -7.496063z" fill-rule="nonzero"></path><path fill="#666666" d="m43.09974 81.291336l0 0c0 -4.1399612 3.356102 -7.496063 7.496063 -7.496063l0 0c1.9880791 0 3.8947296 0.7897644 5.300514 2.195549c1.4057846 1.4057846 2.1955452 3.312439 2.1955452 5.300514l0 0c0 4.1399612 -3.3560982 7.496063 -7.4960594 7.496063l0 0c-4.1399612 0 -7.496063 -3.356102 -7.496063 -7.496063z" fill-rule="nonzero"></path><path stroke="#999999" stroke-width="1.0" stroke-linejoin="round" stroke-linecap="butt" d="m43.09974 81.291336l0 0c0 -4.1399612 3.356102 -7.496063 7.496063 -7.496063l0 0c1.9880791 0 3.8947296 0.7897644 5.300514 2.195549c1.4057846 1.4057846 2.1955452 3.312439 2.1955452 5.300514l0 0c0 4.1399612 -3.3560982 7.496063 -7.4960594 7.496063l0 0c-4.1399612 0 -7.496063 -3.356102 -7.496063 -7.496063z" fill-rule="nonzero"></path></g></svg>

